Coordinates
version=1
nRows=60
nColumns=12
inDegrees=yes

Units are S.I. units (second, meters, Newtons, ...)
Angles are in degrees

endheader
time	SC_y	SC_z	SC_x	AC_y	AC_z	AC_x	GH_y	GH_z	GH_yy	EL_x	PS_y
       0.0               -57.9          17.63          41.42          41.35          6.176         -11.24          112.3         -8.382         -35.01          126.5          72.86
   0.01089               -57.9          17.63          41.42          41.35          6.176         -11.24          112.3         -8.378         -35.02          126.5          72.86
   0.02178               -57.9          17.63          41.42          41.35          6.175         -11.24          112.3         -8.373         -35.02          126.5          72.87
   0.03267              -57.89          17.63          41.43          41.34          6.175         -11.24          112.2         -8.369         -35.03          126.5          72.88
   0.04356              -57.89          17.63          41.43          41.34          6.174         -11.24          112.2         -8.364         -35.03          126.5          72.89
   0.05445              -57.88          17.63          41.43          41.34          6.174         -11.24          112.1         -8.359         -35.04          126.5           72.9
   0.06534              -57.87          17.63          41.43          41.34          6.173         -11.23          112.1         -8.353         -35.05          126.5          72.91
   0.07623              -57.87          17.63          41.43          41.34          6.173         -11.23          112.0         -8.347         -35.05          126.5          72.92
   0.08712              -57.86          17.63          41.43          41.33          6.172         -11.23          111.9         -8.341         -35.06          126.4          72.93
   0.09801              -57.85          17.63          41.44          41.33          6.171         -11.23          111.9         -8.334         -35.07          126.4          72.94
    0.1089              -57.85          17.64          41.44          41.33          6.171         -11.23          111.8         -8.326         -35.08          126.4          72.95
    0.1198              -57.84          17.64          41.44          41.33           6.17         -11.23          111.7         -8.318         -35.09          126.4          72.97
    0.1307              -57.83          17.64          41.44          41.32          6.169         -11.23          111.7          -8.31          -35.1          126.4          72.98
    0.1416              -57.82          17.64          41.45          41.32          6.168         -11.23          111.6           -8.3         -35.11          126.3           73.0
    0.1525              -57.81          17.64          41.45          41.32          6.167         -11.23          111.5          -8.29         -35.12          126.3          73.02
    0.1634               -57.8          17.64          41.45          41.31          6.166         -11.23          111.4          -8.28         -35.14          126.3          73.04
    0.1742              -57.78          17.65          41.46          41.31          6.165         -11.23          111.3         -8.268         -35.15          126.2          73.06
    0.1851              -57.77          17.65          41.46           41.3          6.163         -11.23          111.1         -8.255         -35.16          126.2          73.08
     0.196              -57.76          17.65          41.46           41.3          6.162         -11.23          111.0         -8.241         -35.18          126.2          73.11
    0.2069              -57.74          17.65          41.47          41.29           6.16         -11.22          110.9         -8.225          -35.2          126.1          73.13
    0.2178              -57.72          17.66          41.47          41.29          6.159         -11.22          110.7         -8.208         -35.22          126.1          73.16
    0.2287               -57.7          17.66          41.48          41.28          6.157         -11.22          110.5          -8.19         -35.24          126.0           73.2
    0.2396              -57.68          17.66          41.49          41.27          6.155         -11.22          110.3         -8.169         -35.27          126.0          73.23
    0.2505              -57.66          17.67          41.49          41.27          6.152         -11.22          110.1         -8.146          -35.3          125.9          73.27
    0.2614              -57.63          17.67           41.5          41.26           6.15         -11.22          109.9         -8.121         -35.33          125.9          73.32
    0.2723               -57.6          17.68          41.51          41.25          6.147         -11.21          109.6         -8.093         -35.36          125.8          73.37
    0.2831              -57.57          17.68          41.52          41.24          6.143         -11.21          109.3         -8.061          -35.4          125.7          73.42
     0.294              -57.53          17.69          41.53          41.22           6.14         -11.21          109.0         -8.026         -35.44          125.6          73.49
    0.3049              -57.49           17.7          41.54          41.21          6.136         -11.21          108.6         -7.985         -35.49          125.5          73.56
    0.3158              -57.44          17.71          41.56          41.19          6.131          -11.2          108.1          -7.94         -35.55          125.4          73.64
    0.3267              -57.39          17.72          41.57          41.18          6.126          -11.2          107.6         -7.887         -35.61          125.2          73.73
    0.3376              -57.33          17.73          41.59          41.16          6.119         -11.19          107.1         -7.828         -35.68          125.1          73.84
    0.3485              -57.25          17.74          41.61          41.13          6.112         -11.19          106.4         -7.758         -35.77          124.9          73.96
    0.3594              -57.17          17.76          41.64           41.1          6.104         -11.18          105.6         -7.678         -35.86          124.7           74.1
    0.3703              -57.07          17.77          41.66          41.07          6.094         -11.18          104.7         -7.584         -35.98          124.4          74.27
    0.3812              -56.96          17.79           41.7          41.03          6.083         -11.17          103.7         -7.473         -36.11          124.1          74.46
     0.392              -56.82          17.82          41.74          40.99           6.07         -11.16          102.4         -7.342         -36.27          123.8           74.7
    0.4029              -56.65          17.85          41.79          40.93          6.053         -11.14          100.9         -7.184         -36.46          123.4          74.98
    0.4138              -56.45          17.88          41.84          40.86          6.034         -11.13          99.12         -6.993         -36.69          122.9          75.32
    0.4247              -56.21          17.92          41.91          40.78           6.01         -11.11           96.9          -6.76         -36.98          122.3          75.73
    0.4356              -55.91          17.98           42.0          40.68           5.98         -11.09          94.16         -6.472         -37.33          121.5          76.24
    0.4465              -55.54          18.04          42.11          40.56          5.944         -11.06          90.75         -6.113         -37.76          120.6          76.87
    0.4574              -55.07          18.13          42.25           40.4          5.897         -11.03          86.44         -5.661         -38.31          119.4          77.67
    0.4683              -54.47          18.23          42.42           40.2          5.838         -10.98          80.97         -5.086         -39.01          117.8          78.69
    0.4792               -53.7          18.37          42.64          39.94          5.763         -10.93          73.97         -4.351          -39.9          115.9          79.99
    0.4901              -52.71          18.54          42.93          39.61          5.666         -10.85          64.98         -3.406         -41.04          113.4          81.67
    0.5009              -51.45          18.77          43.29          39.19          5.542         -10.76           53.5         -2.201          -42.5          110.2           83.8
    0.5118              -49.87          19.05          43.75          38.67          5.387         -10.64          39.07        -0.6842         -44.34          106.2          86.49
    0.5227              -47.94          19.39          44.31          38.02          5.197          -10.5          21.48          1.164         -46.58          101.3          89.76
    0.5336              -45.71          19.78          44.96          37.28          4.977         -10.33           1.09          3.305         -49.18          95.68          93.55
    0.5445              -43.29          20.21          45.67          36.47          4.739         -10.15         -20.99          5.625         -51.99          89.55          97.66
    0.5554              -40.87          20.64          46.37          35.66          4.501         -9.974         -43.06          7.944          -54.8          83.42          101.8
    0.5663              -38.64          21.03          47.02          34.91          4.281         -9.808         -63.45          10.09          -57.4          77.77          105.6
    0.5772              -36.71          21.37          47.58          34.27          4.092         -9.665         -81.04          11.93         -59.64          72.88          108.8
    0.5881              -35.13          21.65          48.04          33.74          3.936         -9.548         -95.47          13.45         -61.47          68.88          111.5
     0.599              -33.87          21.88           48.4          33.32          3.813         -9.455         -107.0          14.66         -62.93          65.69          113.7
    0.6099              -32.88          22.05          48.69          32.99          3.716         -9.382         -115.9           15.6         -64.08           63.2          115.3
    0.6207              -32.12          22.19          48.91          32.73           3.64         -9.325         -122.9          16.34         -64.97          61.26          116.6
    0.6316              -31.52          22.29          49.08          32.53          3.581          -9.28         -128.4          16.91         -65.67          59.74          117.6
    0.6425              -31.04          22.38          49.22          32.38          3.535         -9.245         -132.7          17.36         -66.22          58.54          118.4
